<?xml version="1.0" standalone="no"?>
<!DOCTYPE svg PUBLIC "-//W3C//DTD SVG 1.1//EN" "http://www.w3.org/Graphics/SVG/1.1/DTD/svg11.dtd" >
<svg xmlns="http://www.w3.org/2000/svg" xmlns:xlink="http://www.w3.org/1999/xlink" version="1.1">
<metadata></metadata>
<defs>
<font id="wakandaregular" horiz-adv-x="0" >
<font-face units-per-em="2048" ascent="1638" descent="-410" />
<missing-glyph horiz-adv-x="475" />
<glyph />
<glyph horiz-adv-x="682" />
<glyph unicode="&#xa;" />
<glyph unicode="&#xd;" horiz-adv-x="681" />
<glyph unicode=" "  horiz-adv-x="475" />
<glyph unicode="&#x09;" horiz-adv-x="475" />
<glyph unicode="&#xa0;" horiz-adv-x="475" />
<glyph unicode="!" horiz-adv-x="731" d="M55 -63q68 100 103 202q32 -20 32 -71q0 -39 -12 -99.5t-31 -91.5q-33 -2 -57 14.5t-35 45.5zM143 313q20 231 185 599t245 479q41 -4 70 -42t33 -79q-176 -248 -255 -448.5t-169 -604.5q-23 -2 -48.5 11.5t-44 37t-16.5 47.5z" />
<glyph unicode="?" horiz-adv-x="808" d="M49 -27q57 88 90 177q29 -19 27 -62q0 -35 -10.5 -87t-26.5 -79q-29 -2 -50.5 12.5t-29.5 38.5zM124 271q-24 46 1 116q47 94 136 199.5t178 193.5t174 179.5t138.5 188.5t51.5 191q-53 10 -127 -2t-149.5 -50t-138 -92t-97.5 -137t-25 -175q-39 -2 -75.5 46t-32.5 95 q6 100 55 180t117.5 127t148.5 78t144.5 41t107.5 6t81 -49t55.5 -97.5t15.5 -88.5q-6 -76 -48 -153t-101.5 -143.5t-130.5 -135t-141.5 -137t-128 -137.5t-95 -148.5t-41.5 -159.5q-49 18 -73 64z" />
<glyph unicode="A" horiz-adv-x="1280" d="M38 908v21q0 66 17 93q41 55 279 160q240 104 504 183q218 65 322 65q23 0 40 -3q33 -6 74 -56t43 -75q-29 -43 -86 -160.5t-134 -306t-130 -364.5q182 43 350 117q10 -4 7 -27t-17 -39q-6 -6 -53.5 -26.5t-133.5 -50t-178 -56.5q-59 -213 -74 -373q-33 2 -78 71 q-42 65 -42 107v5q4 39 38 149q-184 -43 -329 -51q-119 -205 -232 -432q-61 18 -91 103q-18 50 -18 88q0 26 9 46q17 67 17 134q0 13 -1 27q-4 81 -37 99q-2 4 -5 9.5t-10 23t-10 32.5t1 35.5t16 35.5q61 -47 246 -70q186 254 406.5 510t379.5 389q-141 -16 -383.5 -121.5 t-441.5 -226.5t-244 -189q-18 41 -21 124zM164 322q27 -20 39 -95q23 35 49 72q-49 9 -88 23zM528 414h12q138 0 277 22q66 193 163 426.5t185 403.5q-336 -356 -637 -852z" />
<glyph unicode="&#xc4;" horiz-adv-x="1280" d="M38 908v21q0 66 17 93q41 55 279 160q240 104 504 183q218 65 322 65q23 0 40 -3q33 -6 74 -56t43 -75q-29 -43 -86 -160.5t-134 -306t-130 -364.5q182 43 350 117q10 -4 7 -27t-17 -39q-6 -6 -53.5 -26.5t-133.5 -50t-178 -56.5q-59 -213 -74 -373q-33 2 -78 71 q-42 65 -42 107v5q4 39 38 149q-184 -43 -329 -51q-119 -205 -232 -432q-61 18 -91 103q-18 50 -18 88q0 26 9 46q17 67 17 134q0 13 -1 27q-4 81 -37 99q-2 4 -5 9.5t-10 23t-10 32.5t1 35.5t16 35.5q61 -47 246 -70q186 254 406.5 510t379.5 389q-141 -16 -383.5 -121.5 t-441.5 -226.5t-244 -189q-18 41 -21 124zM164 322q27 -20 39 -95q23 35 49 72q-49 9 -88 23zM528 414h12q138 0 277 22q66 193 163 426.5t185 403.5q-336 -356 -637 -852z" />
<glyph unicode="&#xc3;" horiz-adv-x="1280" d="M38 908v21q0 66 17 93q41 55 279 160q240 104 504 183q218 65 322 65q23 0 40 -3q33 -6 74 -56t43 -75q-29 -43 -86 -160.5t-134 -306t-130 -364.5q182 43 350 117q10 -4 7 -27t-17 -39q-6 -6 -53.5 -26.5t-133.5 -50t-178 -56.5q-59 -213 -74 -373q-33 2 -78 71 q-42 65 -42 107v5q4 39 38 149q-184 -43 -329 -51q-119 -205 -232 -432q-61 18 -91 103q-18 50 -18 88q0 26 9 46q17 67 17 134q0 13 -1 27q-4 81 -37 99q-2 4 -5 9.5t-10 23t-10 32.5t1 35.5t16 35.5q61 -47 246 -70q186 254 406.5 510t379.5 389q-141 -16 -383.5 -121.5 t-441.5 -226.5t-244 -189q-18 41 -21 124zM164 322q27 -20 39 -95q23 35 49 72q-49 9 -88 23zM528 414h12q138 0 277 22q66 193 163 426.5t185 403.5q-336 -356 -637 -852z" />
<glyph unicode="&#xc2;" horiz-adv-x="1280" d="M38 908v21q0 66 17 93q41 55 279 160q240 104 504 183q218 65 322 65q23 0 40 -3q33 -6 74 -56t43 -75q-29 -43 -86 -160.5t-134 -306t-130 -364.5q182 43 350 117q10 -4 7 -27t-17 -39q-6 -6 -53.5 -26.5t-133.5 -50t-178 -56.5q-59 -213 -74 -373q-33 2 -78 71 q-42 65 -42 107v5q4 39 38 149q-184 -43 -329 -51q-119 -205 -232 -432q-61 18 -91 103q-18 50 -18 88q0 26 9 46q17 67 17 134q0 13 -1 27q-4 81 -37 99q-2 4 -5 9.5t-10 23t-10 32.5t1 35.5t16 35.5q61 -47 246 -70q186 254 406.5 510t379.5 389q-141 -16 -383.5 -121.5 t-441.5 -226.5t-244 -189q-18 41 -21 124zM164 322q27 -20 39 -95q23 35 49 72q-49 9 -88 23zM528 414h12q138 0 277 22q66 193 163 426.5t185 403.5q-336 -356 -637 -852z" />
<glyph unicode="&#xc1;" horiz-adv-x="1280" d="M38 908v21q0 66 17 93q41 55 279 160q240 104 504 183q218 65 322 65q23 0 40 -3q33 -6 74 -56t43 -75q-29 -43 -86 -160.5t-134 -306t-130 -364.5q182 43 350 117q10 -4 7 -27t-17 -39q-6 -6 -53.5 -26.5t-133.5 -50t-178 -56.5q-59 -213 -74 -373q-33 2 -78 71 q-42 65 -42 107v5q4 39 38 149q-184 -43 -329 -51q-119 -205 -232 -432q-61 18 -91 103q-18 50 -18 88q0 26 9 46q17 67 17 134q0 13 -1 27q-4 81 -37 99q-2 4 -5 9.5t-10 23t-10 32.5t1 35.5t16 35.5q61 -47 246 -70q186 254 406.5 510t379.5 389q-141 -16 -383.5 -121.5 t-441.5 -226.5t-244 -189q-18 41 -21 124zM164 322q27 -20 39 -95q23 35 49 72q-49 9 -88 23zM528 414h12q138 0 277 22q66 193 163 426.5t185 403.5q-336 -356 -637 -852z" />
<glyph unicode="&#xc0;" horiz-adv-x="1280" d="M38 908v21q0 66 17 93q41 55 279 160q240 104 504 183q218 65 322 65q23 0 40 -3q33 -6 74 -56t43 -75q-29 -43 -86 -160.5t-134 -306t-130 -364.5q182 43 350 117q10 -4 7 -27t-17 -39q-6 -6 -53.5 -26.5t-133.5 -50t-178 -56.5q-59 -213 -74 -373q-33 2 -78 71 q-42 65 -42 107v5q4 39 38 149q-184 -43 -329 -51q-119 -205 -232 -432q-61 18 -91 103q-18 50 -18 88q0 26 9 46q17 67 17 134q0 13 -1 27q-4 81 -37 99q-2 4 -5 9.5t-10 23t-10 32.5t1 35.5t16 35.5q61 -47 246 -70q186 254 406.5 510t379.5 389q-141 -16 -383.5 -121.5 t-441.5 -226.5t-244 -189q-18 41 -21 124zM164 322q27 -20 39 -95q23 35 49 72q-49 9 -88 23zM528 414h12q138 0 277 22q66 193 163 426.5t185 403.5q-336 -356 -637 -852z" />
<glyph unicode="B" horiz-adv-x="1169" d="M34 928q14 108 52 145q63 66 254.5 146.5t389.5 130.5q152 38 232 37q24 0 42 -3q76 -16 137 -100q54 -74 54 -139q0 -9 -1 -17q-14 -111 -107.5 -231.5t-238.5 -210.5h19q65 0 91 -12q44 -25 90 -111q37 -69 37 -132q0 -15 -2 -30q-4 -29 -37.5 -75.5t-90 -98 t-120 -97.5t-137.5 -74q-64 -24 -119 -24q-8 0 -16 1q-45 2 -82 52t-55 116q-18 -87 -18 -156q0 -21 2 -41h-7q-41 0 -93 41q-58 45 -60 117v6q0 120 164 482q168 370 309 544q16 0 38.5 -20.5t37 -49t8.5 -47.5q-88 -121 -209 -381q137 43 257 142q119 100 181 202 q54 91 55 157q0 9 -1 17q-20 25 -68 32q-23 3 -49 3q-31 0 -65 -4q-64 -8 -143 -29.5t-162 -54.5t-166 -76t-154.5 -92t-132 -106.5t-95.5 -114.5q-25 33 -25 97q0 27 4 59zM438 252q41 -39 100 -40q22 0 44 6q88 18 173 72t148.5 122.5t71.5 115.5q-25 44 -151 56 q-38 4 -76 3q-88 0 -177 -20q-16 -4 -30 -6q-68 -170 -103 -309z" />
<glyph unicode="C" horiz-adv-x="860" d="M43 534q33 177 109.5 330.5t174 268t189.5 182t154 76.5q9 1 18 1q68 0 126 -65q66 -74 79 -151q2 -15 2 -31q0 -93 -75 -249q-89 -184 -202 -255q-16 -9 -32 -9q-32 0 -61 38q-34 43 -34 78q0 10 3 20q3 0 7 -1q45 1 109 71q70 76 121 194q47 110 47 204v15q-4 2 -11 2 q-27 0 -91 -40q-78 -50 -173 -149t-177 -248.5t-113 -331.5q-12 -69 -12 -143q0 -122 32 -257q3 -3 9 -3q26 0 102 49q92 60 217 173t209 227q20 0 28.5 -29.5t0.5 -45.5q-33 -59 -138.5 -168t-228.5 -201t-182 -94h-3q-54 0 -120 60q-68 62 -78 112q-21 105 -21 204 q0 85 15 166z" />
<glyph unicode="D" horiz-adv-x="1165" d="M29 868q4 100 49 156q47 59 206 143q160 83 342 143q161 52 255 53q13 0 24 -1q80 -6 154 -74.5t116 -158t48 -171.5q1 -8 0 -17q1 -114 -95 -318q-104 -220 -252.5 -409t-252.5 -220q-21 -6 -40 -6q-55 0 -103 48q-64 64 -70 157q-20 -94 -20 -167q0 -17 1 -34h-7 q-40 0 -92 41q-56 45 -61 117v5q1 119 165 481q168 370 309 546q27 -2 59 -45q25 -34 26 -59q0 -7 -2 -13q-82 -113 -207.5 -382t-170.5 -490q38 -43 88 -43q81 0 196 112q172 172 299 461q96 220 96 365q0 37 -6 69q-87 64 -202 64q-27 1 -53 -3q-148 -18 -296.5 -93.5 t-274.5 -190.5t-187 -227q-41 56 -41 145v16z" />
<glyph unicode="E" horiz-adv-x="765" d="M16 143q12 119 139.5 249t264.5 186q-68 -14 -122 -14q-74 0 -124 26q-40 20 -64 82q-18 46 -18 82q0 12 2 24q23 127 136.5 301t238.5 295t184 121q53 0 103 -43q50 -44 80 -104q28 -57 28 -106v-7q-2 -35 -51 -135.5t-111.5 -194.5t-93.5 -104q-10 -3 -20 -3 q-33 0 -74 30q-53 38 -65 77q68 4 140.5 99.5t112 198t37.5 145.5q-2 1 -4 1q-24 0 -99 -68q-83 -75 -175 -180.5t-169 -230.5t-85 -202q4 -29 133 -29q90 0 240 14q2 -2 7 -6t17 -18.5t17.5 -26.5t9.5 -30.5t-6 -28.5q-39 -8 -111 -53.5t-152.5 -114t-146 -172 t-82.5 -209.5q3 -1 8 0q39 0 139 66q112 74 235.5 180t238 219.5t159.5 181.5q10 2 16.5 -20.5t0.5 -34.5q-14 -33 -112.5 -145.5t-221.5 -237.5t-250 -221q-118 -89 -178 -88h-8q-70 8 -110 88q-35 70 -35 140q0 11 1 21z" />
<glyph unicode="&#xca;" horiz-adv-x="765" d="M16 143q12 119 139.5 249t264.5 186q-68 -14 -122 -14q-74 0 -124 26q-40 20 -64 82q-18 46 -18 82q0 12 2 24q23 127 136.5 301t238.5 295t184 121q53 0 103 -43q50 -44 80 -104q28 -57 28 -106v-7q-2 -35 -51 -135.5t-111.5 -194.5t-93.5 -104q-10 -3 -20 -3 q-33 0 -74 30q-53 38 -65 77q68 4 140.5 99.5t112 198t37.5 145.5q-2 1 -4 1q-24 0 -99 -68q-83 -75 -175 -180.5t-169 -230.5t-85 -202q4 -29 133 -29q90 0 240 14q2 -2 7 -6t17 -18.5t17.5 -26.5t9.5 -30.5t-6 -28.5q-39 -8 -111 -53.5t-152.5 -114t-146 -172 t-82.5 -209.5q3 -1 8 0q39 0 139 66q112 74 235.5 180t238 219.5t159.5 181.5q10 2 16.5 -20.5t0.5 -34.5q-14 -33 -112.5 -145.5t-221.5 -237.5t-250 -221q-118 -89 -178 -88h-8q-70 8 -110 88q-35 70 -35 140q0 11 1 21z" />
<glyph unicode="&#xc9;" horiz-adv-x="765" d="M16 143q12 119 139.5 249t264.5 186q-68 -14 -122 -14q-74 0 -124 26q-40 20 -64 82q-18 46 -18 82q0 12 2 24q23 127 136.5 301t238.5 295t184 121q53 0 103 -43q50 -44 80 -104q28 -57 28 -106v-7q-2 -35 -51 -135.5t-111.5 -194.5t-93.5 -104q-10 -3 -20 -3 q-33 0 -74 30q-53 38 -65 77q68 4 140.5 99.5t112 198t37.5 145.5q-2 1 -4 1q-24 0 -99 -68q-83 -75 -175 -180.5t-169 -230.5t-85 -202q4 -29 133 -29q90 0 240 14q2 -2 7 -6t17 -18.5t17.5 -26.5t9.5 -30.5t-6 -28.5q-39 -8 -111 -53.5t-152.5 -114t-146 -172 t-82.5 -209.5q3 -1 8 0q39 0 139 66q112 74 235.5 180t238 219.5t159.5 181.5q10 2 16.5 -20.5t0.5 -34.5q-14 -33 -112.5 -145.5t-221.5 -237.5t-250 -221q-118 -89 -178 -88h-8q-70 8 -110 88q-35 70 -35 140q0 11 1 21z" />
<glyph unicode="&#xc8;" horiz-adv-x="765" d="M16 143q12 119 139.5 249t264.5 186q-68 -14 -122 -14q-74 0 -124 26q-40 20 -64 82q-18 46 -18 82q0 12 2 24q23 127 136.5 301t238.5 295t184 121q53 0 103 -43q50 -44 80 -104q28 -57 28 -106v-7q-2 -35 -51 -135.5t-111.5 -194.5t-93.5 -104q-10 -3 -20 -3 q-33 0 -74 30q-53 38 -65 77q68 4 140.5 99.5t112 198t37.5 145.5q-2 1 -4 1q-24 0 -99 -68q-83 -75 -175 -180.5t-169 -230.5t-85 -202q4 -29 133 -29q90 0 240 14q2 -2 7 -6t17 -18.5t17.5 -26.5t9.5 -30.5t-6 -28.5q-39 -8 -111 -53.5t-152.5 -114t-146 -172 t-82.5 -209.5q3 -1 8 0q39 0 139 66q112 74 235.5 180t238 219.5t159.5 181.5q10 2 16.5 -20.5t0.5 -34.5q-14 -33 -112.5 -145.5t-221.5 -237.5t-250 -221q-118 -89 -178 -88h-8q-70 8 -110 88q-35 70 -35 140q0 11 1 21z" />
<glyph unicode="F" horiz-adv-x="1286" d="M30 933v14q0 29 3 53q4 30 14 49q23 43 196 141t370.5 181t277.5 85h4q38 0 91 -39q56 -41 98 -95t46 -93q1 -15 1 -32q0 -160 -89 -406q115 49 213 135q14 0 46 -37t40 -68q-55 -61 -112.5 -173.5t-57.5 -180.5q31 4 103 70.5t98 99.5q4 0 8 -3t7.5 -12.5t1.5 -21.5 t-45.5 -60t-96.5 -93.5t-75 -46.5h-2q-22 0 -52 33q-31 34 -39 67q-2 12 -2 26q0 45 24 115q32 92 83 182q-70 -55 -166 -98q-92 -233 -233.5 -467.5t-292.5 -392.5q-49 7 -85 75q-26 49 -26 93q0 17 4 33q27 27 62.5 78t72.5 128q36 76 60 154q20 67 21 138q0 12 -1 25 q-4 85 -45 150q87 -12 165 -13q85 0 161 15q113 274 113 490q0 54 -7 104q-12 4 -60 -6t-120 -35.5t-157 -60.5t-174 -83t-166 -100.5t-139 -116t-89 -124.5q-25 18 -38 53t-14 71zM586 246q152 182 264 426q-64 -14 -117 -14t-96 14q33 -56 34 -132q-1 -121 -85 -294z" />
<glyph unicode="G" horiz-adv-x="821" d="M-4 381q0 113 56.5 261.5t147.5 287.5t194.5 259t204.5 193.5t171 73.5q82 0 146 -81q67 -84 67 -203q0 -61 -93 -245q-96 -188 -155 -208q-14 -4 -30 -4q-36 0 -75 23q-57 34 -59 73q82 47 154 149.5t103 198.5q21 61 21 103q0 24 -7 41q-135 -41 -293 -213 t-266.5 -398.5t-110.5 -406.5q31 8 83 35.5t155.5 111.5t212.5 203h5t13 -3t19.5 -7t20.5 -13.5t21.5 -20.5t19.5 -28.5t13 -38.5q-20 -18 -67 -97t-101.5 -189.5t-96.5 -247.5t-46 -246q-6 -1 -12 -1q-41 0 -92 47q-54 51 -54 120v10q2 78 94.5 262.5t182.5 309.5 q-82 -106 -214 -223q-128 -113 -176 -113h-3q-49 6 -101.5 88t-52.5 137z" />
<glyph unicode="H" horiz-adv-x="1382" d="M31 928q2 100 43 157q70 96 221 189.5t287 142.5q113 41 171 41q12 0 21 -2q51 -8 102.5 -61.5t80 -117t30.5 -106.5q0 -35 -34.5 -133t-94 -233t-127.5 -275q56 -4 112 -4q95 0 191 11q96 270 232.5 565t199.5 373q43 -8 73 -43t40 -84q-98 -139 -197.5 -346 t-173.5 -439q115 27 226 68q8 -6 8 -18.5t-8 -20.5q-53 -51 -250 -105q-84 -281 -109 -520q-4 -1 -9 -1q-39 0 -86 64q-48 66 -48 116v8q10 104 72 295q-147 -26 -278 -26q-25 0 -50 1q-182 -348 -283 -428h-2q-40 0 -81 64q-38 61 -38 116v10q42 44 58 176q5 42 5 72 q0 65 -22 78q-2 4 -6 9t-12 22.5t-11 33t0 36t17 36.5q76 -61 270 -96q123 217 211 453q76 204 76 282q0 12 -2 21q-10 8 -31 8q-34 -1 -98 -21q-102 -32 -226 -100t-249 -185.5t-182 -246.5q-39 60 -39 154v10zM360 496q23 -45 25 -115v-14q0 -61 -16 -107q66 68 139 184 q-82 18 -148 52z" />
<glyph unicode="I" horiz-adv-x="643" d="M-105 26q3 36 19 54q47 49 270 72q-41 39 -49 88q231 285 385 628q140 311 141 425q0 12 -2 22q-5 1 -11 1q-46 0 -156 -41q-124 -46 -248.5 -121t-157.5 -134q-29 29 -29 102.5t37 124.5q53 65 259 137q165 57 253 58q22 0 39 -4q41 -10 83 -78q44 -71 45 -145 q0 -75 -164 -453q-165 -383 -308 -602q39 1 70 1q99 0 121 -14q33 -17 47 -73q5 -21 5 -38q0 -27 -14 -42q-6 41 -99 48q-27 2 -55 2q-70 0 -150 -12q-112 -18 -209 -41.5t-111 -37.5q-12 30 -12 61q0 6 1 12z" />
<glyph unicode="&#xce;" horiz-adv-x="643" d="M-105 26q3 36 19 54q47 49 270 72q-41 39 -49 88q231 285 385 628q140 311 141 425q0 12 -2 22q-5 1 -11 1q-46 0 -156 -41q-124 -46 -248.5 -121t-157.5 -134q-29 29 -29 102.5t37 124.5q53 65 259 137q165 57 253 58q22 0 39 -4q41 -10 83 -78q44 -71 45 -145 q0 -75 -164 -453q-165 -383 -308 -602q39 1 70 1q99 0 121 -14q33 -17 47 -73q5 -21 5 -38q0 -27 -14 -42q-6 41 -99 48q-27 2 -55 2q-70 0 -150 -12q-112 -18 -209 -41.5t-111 -37.5q-12 30 -12 61q0 6 1 12z" />
<glyph unicode="&#xcd;" horiz-adv-x="643" d="M-105 26q3 36 19 54q47 49 270 72q-41 39 -49 88q231 285 385 628q140 311 141 425q0 12 -2 22q-5 1 -11 1q-46 0 -156 -41q-124 -46 -248.5 -121t-157.5 -134q-29 29 -29 102.5t37 124.5q53 65 259 137q165 57 253 58q22 0 39 -4q41 -10 83 -78q44 -71 45 -145 q0 -75 -164 -453q-165 -383 -308 -602q39 1 70 1q99 0 121 -14q33 -17 47 -73q5 -21 5 -38q0 -27 -14 -42q-6 41 -99 48q-27 2 -55 2q-70 0 -150 -12q-112 -18 -209 -41.5t-111 -37.5q-12 30 -12 61q0 6 1 12z" />
<glyph unicode="&#xcc;" horiz-adv-x="643" d="M-105 26q3 36 19 54q47 49 270 72q-41 39 -49 88q231 285 385 628q140 311 141 425q0 12 -2 22q-5 1 -11 1q-46 0 -156 -41q-124 -46 -248.5 -121t-157.5 -134q-29 29 -29 102.5t37 124.5q53 65 259 137q165 57 253 58q22 0 39 -4q41 -10 83 -78q44 -71 45 -145 q0 -75 -164 -453q-165 -383 -308 -602q39 1 70 1q99 0 121 -14q33 -17 47 -73q5 -21 5 -38q0 -27 -14 -42q-6 41 -99 48q-27 2 -55 2q-70 0 -150 -12q-112 -18 -209 -41.5t-111 -37.5q-12 30 -12 61q0 6 1 12z" />
<glyph unicode="J" horiz-adv-x="915" d="M-6 203q94 170 289.5 299t404.5 186q53 152 64 286q3 32 3 58q0 84 -28 109q-10 10 -32 10q-44 0 -136 -39q-139 -57 -289.5 -164.5t-195.5 -199.5q-39 37 -41 120v12q0 73 22 113q39 76 273 187q229 110 324 110h3q78 -2 150 -84t84 -168q4 -23 4 -51q0 -100 -49 -270 q34 4 64 4q73 0 120 -21q8 -2 10 -15t-4 -21q-46 11 -101 11q-50 0 -106 -9q-41 -127 -97 -243t-132 -220.5t-172 -169t-201 -66.5h-5q-95 0 -168 77q-61 64 -61 129q0 15 3 30zM88 176q40 -8 80 -8q57 0 112 18q93 29 163.5 97.5t126 152.5t96.5 187q-186 -63 -349 -187.5 t-229 -259.5zM251 1343.5q3 28.5 13 51t25 39.5q31 33 220 89q156 46 211 46q12 0 19 -2q25 -8 53 -53q25 -40 25 -65v-7q-22 4 -49 4q-82 0 -212 -32q-173 -42 -300 -128q-8 29 -5 57.5z" />
<glyph unicode="K" horiz-adv-x="1652" d="M20 874q-2 18 -2 35q0 49 19 84q27 59 179 155q151 96 331 164q149 57 238 57q18 0 34 -3q68 -12 111 -90t43 -156q-2 -113 -158 -442q88 74 219 204t225.5 225t199 173t175.5 86q7 1 14 1q33 -1 57 -25q30 -30 41 -71q9 -33 9 -67q0 -9 -1 -18q-3 -43 -19 -66 q-23 46 -64 56q-11 3 -23 3q-33 -1 -74 -19q-56 -26 -119.5 -68.5t-142.5 -109.5t-150.5 -130.5t-160 -137t-157.5 -124.5q35 -129 159.5 -270.5t249.5 -182.5q127 61 234.5 172t181.5 226q12 -6 16.5 -28t-4.5 -40q-14 -45 -81.5 -128t-147.5 -160t-161 -128 q-66 -41 -102 -41q-8 0 -15 2q-45 18 -105.5 58.5t-127.5 101.5t-124 150.5t-86 183.5q-213 -418 -383 -612q-31 0 -69.5 56t-38.5 116q84 88 110 232q10 55 11 110q0 90 -27 182q8 -8 16 -21q56 -62 135 -62q46 0 101 21q122 213 202 417q77 194 76 278v8q-9 7 -29 7 q-33 0 -95 -18q-101 -30 -226 -89.5t-253 -159.5t-191 -209q-42 40 -50 112zM240 66l43 43q-47 -33 -43 -43zM397 473q18 -60 18 -119q0 -56 -16 -110q63 84 127 186q-9 -1 -17 -1q-67 0 -112 44z" />
<glyph unicode="L" horiz-adv-x="1329" d="M25 193q22 -64 142 -64h15q-53 51 -53 111q-1 75 67 266q70 196 168.5 405t217 372t200.5 167h11q51 0 95 -35q50 -39 72 -101q13 -37 14 -72q0 -25 -7 -50q-36 50 -87 50q-69 0 -167 -93q-174 -166 -312 -492q-121 -283 -133 -522q92 12 278 59q186 46 328 68 q73 12 127 12q50 0 84 -10q31 -10 52.5 -32.5t27.5 -50t5 -54.5t-11 -48.5t-26 -29.5q-25 53 -102 65q-30 5 -63 5q-52 1 -112 -11q-98 -20 -213 -49.5t-223.5 -49t-197.5 -19.5t-143 50.5t-54 152.5z" />
<glyph unicode="M" horiz-adv-x="1957" d="M37 895q8 53 26 84q37 59 198 158.5t361 175.5q163 62 270 62q24 0 46 -3q43 -6 78 -46t53 -96t18 -118q0 -53 -75 -225q172 193 342 347.5t227 180.5q47 -21 73 -69q19 -37 19 -76q0 -12 -2 -25q-256 -334 -354 -788q106 184 317 413.5t271 262.5q37 -12 63.5 -43 t34.5 -72q-268 -369 -338 -895q88 61 209 220t141 218q12 -2 21.5 -20.5t5.5 -42.5q-6 -31 -85 -152q-79 -122 -169 -232q-88 -109 -120 -108h-1q-49 6 -104.5 66.5t-59.5 136.5q-1 12 -1 25q0 108 46 256q51 164 142 335q-106 -115 -228.5 -293t-187.5 -333 q-27 2 -62.5 31.5t-63.5 75.5t-28 87v8q0 77 37 200q39 130 108.5 284.5t157.5 300.5q-244 -244 -406.5 -443.5t-334.5 -459.5l-2 -2q-78 -119 -150 -207q-34 2 -78 78q-31 54 -31 94q0 16 5 30q133 119 264 326t206 386t75 257q-68 -2 -166 -28.5t-208 -76.5t-211 -112.5 t-183 -142.5t-117 -162q-33 19 -45 69q-7 30 -7 61q0 21 3 42z" />
<glyph unicode="N" horiz-adv-x="1323" d="M27 924q47 102 207 216q160 115 308 182q124 56 171 56q9 0 16 -2q55 -16 97 -82q44 -69 44 -129q0 -115 -114 -364q98 113 209.5 221t224.5 208.5t153 141.5q47 -14 81 -70q28 -46 28 -91q0 -11 -2 -21q-119 -186 -229.5 -466t-153.5 -566q139 84 313 387 q16 -4 25.5 -24.5t1.5 -47.5q-8 -25 -53 -97.5t-102.5 -153.5t-121 -144.5t-98.5 -65.5q-41 0 -95 65.5t-65 131.5q-1 8 -1 19q-1 90 89 344q100 284 228 536q-383 -344 -680 -756q-131 -205 -252 -332q-42 8 -74 75q-22 46 -22 82q0 16 4 30q115 88 252 290.5t233.5 414.5 t110.5 339q-31 0 -118 -42t-191.5 -109.5t-208 -170t-152.5 -202.5q-36 39 -58 101q-13 36 -12 62q0 20 7 34z" />
<glyph unicode="O" horiz-adv-x="808" d="M25 680q-1 18 -1 34q0 55 13 85q37 121 174 278.5t284.5 266t223.5 108.5q63 0 126.5 -81t65.5 -189v-6q0 -60 -40 -184q-42 -130 -112.5 -286.5t-150.5 -299.5q197 27 293 176q20 -8 24.5 -33t-1.5 -35q-41 -57 -100.5 -100t-127 -67.5t-143.5 -33.5q-41 -66 -80 -120 t-78 -96t-73.5 -64.5t-63.5 -24.5h-2q-48 0 -92 78q-45 80 -45 133v7q0 75 41 198q-45 37 -80 86q-14 14 -25 35v2q-25 53 -30 133zM143 621q25 -45 60 -80q68 164 167 324.5t205 267.5q35 -25 63 -75q21 -38 21 -69q0 -10 -2 -20q-61 -74 -152 -220.5t-159 -306.5 q74 -33 158 -39q162 251 264 519q69 181 69 285q0 50 -16 83q-12 4 -27 4q-45 0 -116 -37q-94 -49 -195.5 -137t-198 -223t-141.5 -276zM246 94q81 57 196 219q-70 6 -135 29q-47 -131 -61 -248z" />
<glyph unicode="&#xd6;" horiz-adv-x="808" d="M25 680q-1 18 -1 34q0 55 13 85q37 121 174 278.5t284.5 266t223.5 108.5q63 0 126.5 -81t65.5 -189v-6q0 -60 -40 -184q-42 -130 -112.5 -286.5t-150.5 -299.5q197 27 293 176q20 -8 24.5 -33t-1.5 -35q-41 -57 -100.5 -100t-127 -67.5t-143.5 -33.5q-41 -66 -80 -120 t-78 -96t-73.5 -64.5t-63.5 -24.5h-2q-48 0 -92 78q-45 80 -45 133v7q0 75 41 198q-45 37 -80 86q-14 14 -25 35v2q-25 53 -30 133zM143 621q25 -45 60 -80q68 164 167 324.5t205 267.5q35 -25 63 -75q21 -38 21 -69q0 -10 -2 -20q-61 -74 -152 -220.5t-159 -306.5 q74 -33 158 -39q162 251 264 519q69 181 69 285q0 50 -16 83q-12 4 -27 4q-45 0 -116 -37q-94 -49 -195.5 -137t-198 -223t-141.5 -276zM246 94q81 57 196 219q-70 6 -135 29q-47 -131 -61 -248z" />
<glyph unicode="&#xd5;" horiz-adv-x="808" d="M25 680q-1 18 -1 34q0 55 13 85q37 121 174 278.5t284.5 266t223.5 108.5q63 0 126.5 -81t65.5 -189v-6q0 -60 -40 -184q-42 -130 -112.5 -286.5t-150.5 -299.5q197 27 293 176q20 -8 24.5 -33t-1.5 -35q-41 -57 -100.5 -100t-127 -67.5t-143.5 -33.5q-41 -66 -80 -120 t-78 -96t-73.5 -64.5t-63.5 -24.5h-2q-48 0 -92 78q-45 80 -45 133v7q0 75 41 198q-45 37 -80 86q-14 14 -25 35v2q-25 53 -30 133zM143 621q25 -45 60 -80q68 164 167 324.5t205 267.5q35 -25 63 -75q21 -38 21 -69q0 -10 -2 -20q-61 -74 -152 -220.5t-159 -306.5 q74 -33 158 -39q162 251 264 519q69 181 69 285q0 50 -16 83q-12 4 -27 4q-45 0 -116 -37q-94 -49 -195.5 -137t-198 -223t-141.5 -276zM246 94q81 57 196 219q-70 6 -135 29q-47 -131 -61 -248z" />
<glyph unicode="&#xd4;" horiz-adv-x="808" d="M25 680q-1 18 -1 34q0 55 13 85q37 121 174 278.5t284.5 266t223.5 108.5q63 0 126.5 -81t65.5 -189v-6q0 -60 -40 -184q-42 -130 -112.5 -286.5t-150.5 -299.5q197 27 293 176q20 -8 24.5 -33t-1.5 -35q-41 -57 -100.5 -100t-127 -67.5t-143.5 -33.5q-41 -66 -80 -120 t-78 -96t-73.5 -64.5t-63.5 -24.5h-2q-48 0 -92 78q-45 80 -45 133v7q0 75 41 198q-45 37 -80 86q-14 14 -25 35v2q-25 53 -30 133zM143 621q25 -45 60 -80q68 164 167 324.5t205 267.5q35 -25 63 -75q21 -38 21 -69q0 -10 -2 -20q-61 -74 -152 -220.5t-159 -306.5 q74 -33 158 -39q162 251 264 519q69 181 69 285q0 50 -16 83q-12 4 -27 4q-45 0 -116 -37q-94 -49 -195.5 -137t-198 -223t-141.5 -276zM246 94q81 57 196 219q-70 6 -135 29q-47 -131 -61 -248z" />
<glyph unicode="&#xd3;" horiz-adv-x="808" d="M25 680q-1 18 -1 34q0 55 13 85q37 121 174 278.5t284.5 266t223.5 108.5q63 0 126.5 -81t65.5 -189v-6q0 -60 -40 -184q-42 -130 -112.5 -286.5t-150.5 -299.5q197 27 293 176q20 -8 24.5 -33t-1.5 -35q-41 -57 -100.5 -100t-127 -67.5t-143.5 -33.5q-41 -66 -80 -120 t-78 -96t-73.5 -64.5t-63.5 -24.5h-2q-48 0 -92 78q-45 80 -45 133v7q0 75 41 198q-45 37 -80 86q-14 14 -25 35v2q-25 53 -30 133zM143 621q25 -45 60 -80q68 164 167 324.5t205 267.5q35 -25 63 -75q21 -38 21 -69q0 -10 -2 -20q-61 -74 -152 -220.5t-159 -306.5 q74 -33 158 -39q162 251 264 519q69 181 69 285q0 50 -16 83q-12 4 -27 4q-45 0 -116 -37q-94 -49 -195.5 -137t-198 -223t-141.5 -276zM246 94q81 57 196 219q-70 6 -135 29q-47 -131 -61 -248z" />
<glyph unicode="&#xd2;" horiz-adv-x="808" d="M25 680q-1 18 -1 34q0 55 13 85q37 121 174 278.5t284.5 266t223.5 108.5q63 0 126.5 -81t65.5 -189v-6q0 -60 -40 -184q-42 -130 -112.5 -286.5t-150.5 -299.5q197 27 293 176q20 -8 24.5 -33t-1.5 -35q-41 -57 -100.5 -100t-127 -67.5t-143.5 -33.5q-41 -66 -80 -120 t-78 -96t-73.5 -64.5t-63.5 -24.5h-2q-48 0 -92 78q-45 80 -45 133v7q0 75 41 198q-45 37 -80 86q-14 14 -25 35v2q-25 53 -30 133zM143 621q25 -45 60 -80q68 164 167 324.5t205 267.5q35 -25 63 -75q21 -38 21 -69q0 -10 -2 -20q-61 -74 -152 -220.5t-159 -306.5 q74 -33 158 -39q162 251 264 519q69 181 69 285q0 50 -16 83q-12 4 -27 4q-45 0 -116 -37q-94 -49 -195.5 -137t-198 -223t-141.5 -276zM246 94q81 57 196 219q-70 6 -135 29q-47 -131 -61 -248z" />
<glyph unicode="P" horiz-adv-x="1396" d="M51 914q2 50 17 79q29 59 173 157.5t317 174.5q164 72 259 72h10q63 -4 105 -79q36 -63 36 -122q0 -11 -1 -22q-16 -104 -121 -322q152 190 310 353q157 161 189 161h1q47 -2 102 -68.5t55 -132.5q0 -74 -60.5 -228.5t-147.5 -311t-196.5 -284.5t-193.5 -151 q-10 -2 -21 -2q-64 0 -140 82q-89 96 -107 191q-182 -311 -369 -580q-43 6 -86 75q-34 55 -34 111q0 14 2 29q125 117 249.5 293t210.5 341t142.5 301t66.5 200q-72 0 -212 -70.5t-286.5 -191.5t-209.5 -236q-31 25 -47 78q-14 47 -13 91v12zM645 477q57 -78 113 -78 q66 0 151.5 71t164.5 178.5t144 225.5q66 118 100 226q25 78 25 130q0 20 -4 36q-100 -78 -311.5 -316.5t-365.5 -443.5q-4 -10 -17 -29z" />
<glyph unicode="Q" horiz-adv-x="792" d="M37 792.5q0 55.5 12 98.5q35 96 168 232.5t279.5 234.5t220.5 98q63 0 127 -81q65 -84 65 -195q0 -118 -131 -424q-133 -310 -284 -527q43 -61 83.5 -116.5t89 -110.5t91.5 -93t87 -65q42 -27 76 -27h3q34 1 67 25q0 -6 1 -16t1 -36t-5 -47.5t-20.5 -39.5t-39.5 -22 q-9 -2 -19 -2q-93 0 -229 139q-150 153 -240 340q-53 -70 -100 -108t-84 -38h-2q-48 0 -92 78q-45 80 -45 137q0 152 140 442q142 294 316 468q35 -25 63 -76q21 -39 21 -70q0 -11 -2 -20q-31 -37 -71.5 -95.5t-96 -151.5t-103.5 -190.5t-88 -214t-52 -221.5q65 45 155 160 q-21 62 -21 106q0 25 7 44q25 -45 55 -93q178 250 305 559q90 219 90 338q0 50 -16 82q-13 4 -29 4q-48 0 -122 -37q-99 -49 -202.5 -140t-198.5 -232t-140 -289q-41 20 -65.5 78.5t-24.5 114z" />
<glyph unicode="R" horiz-adv-x="1114" d="M48 820q5 106 42 145q57 92 236.5 195.5t379.5 164.5q141 43 237 43q41 0 73 -8q74 -14 136 -99q53 -73 53 -135q0 -10 -1 -20q-8 -100 -79.5 -256t-192.5 -307.5t-244 -204.5q29 -45 67 -93t69.5 -82t47.5 -44q63 37 160.5 149.5t122.5 169.5q6 10 21 -18q14 -29 8 -51 q-6 -29 -144 -195q-140 -166 -168 -171h-2q-30 0 -160 124q-134 129 -194 221q-68 -207 -68 -345q0 -20 1 -38h-7q-42 0 -94 41q-58 45 -59 117v6q0 119 164 481q168 370 309 545q16 0 38.5 -20.5t37 -49t8.5 -47.5q-53 -72 -137 -234.5t-152 -336.5h10q75 -1 155 55 q85 60 151.5 152t120.5 194q56 103 84 191q24 73 23 116q0 9 -1 17q-32 25 -92 30q-14 1 -29 1q-49 -1 -109 -13q-78 -16 -166 -48t-179 -83t-173 -113.5t-151.5 -142.5t-110.5 -166q-42 52 -42 143v20z" />
<glyph unicode="S" horiz-adv-x="862" d="M-12 190q16 76 71 101q-2 -77 110 -107q71 -19 145 -20q42 0 86 7q118 17 141 60q-35 14 -118 97.5t-164 203t-91 205.5q-2 12 -2 25q0 68 45 158q53 108 134 201t171 166t152 89q17 4 35 4q57 0 113 -45q74 -59 116 -145q36 -75 36 -133q0 -9 -1 -17q-8 -74 -57.5 -177 t-102.5 -177t-82 -90q-20 -10 -55 -7t-69 13t-57.5 31.5t-19.5 44.5q98 31 177 129t112 213q19 65 19 121q0 42 -11 80q-11 4 -23 4q-52 0 -140 -68q-108 -84 -203 -220t-107 -249q-1 -8 -1 -18q1 -74 59 -187q66 -127 196 -207q18 -18 28 -56q4 -15 3 -31q-1 -25 -9 -54 q-14 -47 -57 -76q-23 -16 -97.5 -34.5t-164.5 -28.5q-32 -4 -63 -4q-58 0 -115 12q-88 18 -125 72q-20 25 -20 66q0 22 6 48z" />
<glyph unicode="T" horiz-adv-x="651" d="M43 1134q16 56 47 89q43 47 267.5 101t464.5 81q129 15 213 15q72 0 112 -11q41 -10 61 -85q11 -39 11 -70q0 -29 -9 -52q-26 56 -198 58h-19q-164 0 -356 -39q23 -10 42 -34t19 -46q-102 -119 -230 -533q-122 -396 -122 -576v-16q-53 10 -104 56q-49 45 -49 87 q0 135 90 386q82 229 188 442q15 28 15 51q0 16 -8 31q-18 35 -59.5 48t-89.5 17q-10 1 -20 1q-37 0 -69 -13q-145 -49 -195 -92q-10 26 -10 54q0 24 8 50zM414 1174q45 -4 74.5 -27t35.5 -60q45 84 76 127q-96 -18 -186 -40z" />
<glyph unicode="U" horiz-adv-x="1376" d="M14 807q25 66 97.5 138.5t161.5 130t179 104.5q92 48 160 72q59 21 83 20h7q57 -10 118 -98q55 -78 55 -150q0 -8 -1 -16q-6 -82 -76.5 -257.5t-187 -385t-233.5 -355.5q113 66 253 206t270 308t231.5 313.5t175.5 268.5q86 145 145 201h4q29 1 67 -51q25 -34 25 -64 q0 -18 -10 -35q-27 -20 -93.5 -126.5t-142 -252t-139 -325t-76.5 -316.5q72 25 190 155t153 191q29 -10 18 -51q-12 -46 -170 -242q-155 -193 -199 -192h-2q-41 4 -94 68.5t-61 128.5v8q0 48 43 172q47 135 125 307q-203 -307 -407 -520t-349 -305q-51 0 -121 70.5 t-70 135.5q121 47 267.5 259.5t239.5 441.5q86 211 86 322q0 10 -1 18q-11 3 -27 3q-32 1 -78 -13q-70 -20 -152.5 -68.5t-162 -111t-144.5 -142.5t-87 -156q-42 20 -64 84q-13 37 -13 68q0 21 7 39z" />
<glyph unicode="&#xdb;" horiz-adv-x="1376" d="M14 807q25 66 97.5 138.5t161.5 130t179 104.5q92 48 160 72q59 21 83 20h7q57 -10 118 -98q55 -78 55 -150q0 -8 -1 -16q-6 -82 -76.5 -257.5t-187 -385t-233.5 -355.5q113 66 253 206t270 308t231.5 313.5t175.5 268.5q86 145 145 201h4q29 1 67 -51q25 -34 25 -64 q0 -18 -10 -35q-27 -20 -93.5 -126.5t-142 -252t-139 -325t-76.5 -316.5q72 25 190 155t153 191q29 -10 18 -51q-12 -46 -170 -242q-155 -193 -199 -192h-2q-41 4 -94 68.5t-61 128.5v8q0 48 43 172q47 135 125 307q-203 -307 -407 -520t-349 -305q-51 0 -121 70.5 t-70 135.5q121 47 267.5 259.5t239.5 441.5q86 211 86 322q0 10 -1 18q-11 3 -27 3q-32 1 -78 -13q-70 -20 -152.5 -68.5t-162 -111t-144.5 -142.5t-87 -156q-42 20 -64 84q-13 37 -13 68q0 21 7 39z" />
<glyph unicode="&#xda;" horiz-adv-x="1376" d="M14 807q25 66 97.5 138.5t161.5 130t179 104.5q92 48 160 72q59 21 83 20h7q57 -10 118 -98q55 -78 55 -150q0 -8 -1 -16q-6 -82 -76.5 -257.5t-187 -385t-233.5 -355.5q113 66 253 206t270 308t231.5 313.5t175.5 268.5q86 145 145 201h4q29 1 67 -51q25 -34 25 -64 q0 -18 -10 -35q-27 -20 -93.5 -126.5t-142 -252t-139 -325t-76.5 -316.5q72 25 190 155t153 191q29 -10 18 -51q-12 -46 -170 -242q-155 -193 -199 -192h-2q-41 4 -94 68.5t-61 128.5v8q0 48 43 172q47 135 125 307q-203 -307 -407 -520t-349 -305q-51 0 -121 70.5 t-70 135.5q121 47 267.5 259.5t239.5 441.5q86 211 86 322q0 10 -1 18q-11 3 -27 3q-32 1 -78 -13q-70 -20 -152.5 -68.5t-162 -111t-144.5 -142.5t-87 -156q-42 20 -64 84q-13 37 -13 68q0 21 7 39z" />
<glyph unicode="&#xd9;" horiz-adv-x="1376" d="M14 807q25 66 97.5 138.5t161.5 130t179 104.5q92 48 160 72q59 21 83 20h7q57 -10 118 -98q55 -78 55 -150q0 -8 -1 -16q-6 -82 -76.5 -257.5t-187 -385t-233.5 -355.5q113 66 253 206t270 308t231.5 313.5t175.5 268.5q86 145 145 201h4q29 1 67 -51q25 -34 25 -64 q0 -18 -10 -35q-27 -20 -93.5 -126.5t-142 -252t-139 -325t-76.5 -316.5q72 25 190 155t153 191q29 -10 18 -51q-12 -46 -170 -242q-155 -193 -199 -192h-2q-41 4 -94 68.5t-61 128.5v8q0 48 43 172q47 135 125 307q-203 -307 -407 -520t-349 -305q-51 0 -121 70.5 t-70 135.5q121 47 267.5 259.5t239.5 441.5q86 211 86 322q0 10 -1 18q-11 3 -27 3q-32 1 -78 -13q-70 -20 -152.5 -68.5t-162 -111t-144.5 -142.5t-87 -156q-42 20 -64 84q-13 37 -13 68q0 21 7 39z" />
<glyph unicode="V" horiz-adv-x="1118" d="M106 894q-4 27 -4 47q0 35 11 52q47 90 262 247t299 163h5q73 1 145 -109q76 -114 79 -200v-6q0 -64 -80 -291q-84 -238 -196 -467q174 238 540.5 656.5t425.5 434.5q9 3 18 3q31 0 59 -32q23 -26 23 -60q0 -19 -7 -42q-10 4 -22 4q-49 0 -135 -58q-108 -72 -245 -213.5 t-280.5 -316t-278.5 -379t-223 -384.5q-46 7 -98 111q-46 94 -47 144q0 6 1 11q100 111 200.5 339t150.5 432q36 145 36 220q0 30 -6 49q-102 -4 -304 -159.5t-292 -298.5q-27 29 -37 103z" />
<glyph unicode="W" horiz-adv-x="1654" d="M51 879q35 84 207 202.5t349 202.5t245 88h4q54 0 112 -100q57 -97 56 -155v-7q-8 -102 -171 -438t-347 -596q129 74 369.5 341t381.5 505q23 43 48 84q82 143 147 241q32 -2 64 -51q25 -39 26 -76q0 -9 -2 -18q-41 -45 -95 -129t-116.5 -204t-111 -275.5t-60.5 -303.5 q111 209 278 460t356 475.5t308 279.5q17 8 32 8q35 1 67 -43q32 -45 33 -86q0 -16 -5 -31q-13 11 -34 11q-28 0 -72 -21q-76 -37 -186.5 -139.5t-235.5 -249.5t-269.5 -364.5t-273.5 -460.5q-70 29 -118 81q-41 45 -41 105q0 10 1 21q18 147 99 348q-123 -172 -268.5 -330 t-270.5 -254t-190 -98q-29 2 -68 99q-30 74 -30 118q0 13 3 24q106 76 245.5 279t244.5 423t121 349h-6q-37 0 -135 -43q-106 -47 -228.5 -122t-238 -181.5t-162.5 -204.5q-41 27 -61 107q-10 40 -11 72q0 32 10 57z" />
<glyph unicode="X" horiz-adv-x="1019" d="M-256 6q18 -8 39 -8q41 0 96 28q84 44 191.5 146t210 215t231.5 268q14 238 40.5 446.5t55.5 274.5q7 4 16 4q21 0 53 -20q46 -28 52 -74q-53 -125 -72 -452q31 39 93 114q111 137 166 205t130.5 155t119.5 126t69 43q9 1 17 1q54 0 78 -46q17 -32 17 -72q0 -27 -8 -57 q-12 14 -32.5 17t-45 -5t-53 -24.5t-63.5 -44t-70 -59.5t-77 -74t-81.5 -85t-86 -95t-88.5 -101.5t-89 -106.5q-2 -65 -2 -127q-1 -119 7 -227q12 -164 36 -236q74 35 174.5 149.5t178.5 229.5q29 -8 29 -44q0 -7 -1 -15q-4 -29 -164.5 -230.5t-205.5 -214.5q-6 -2 -13 -2 q-36 0 -90 44q-64 52 -80 98q-18 53 -18 217q0 79 4 184q-23 -27 -76 -92.5t-76.5 -93t-70.5 -85t-72 -86t-63.5 -73.5t-63.5 -71.5t-54.5 -57.5t-52 -52.5t-42.5 -37.5q-35 -23 -68 -23q-15 -1 -27 3q-46 14 -76 52q-24 30 -24 58q0 7 2 14z" />
<glyph unicode="Y" horiz-adv-x="1292" d="M33 338q31 -82 84 -145.5t117.5 -102.5t137.5 -51q27 -5 55 -5q46 0 93 12q76 20 146 73q199 154 557 971q-168 -250 -428 -512.5t-363 -311.5q-16 0 -44 25.5t-51.5 66.5t-23.5 76q117 96 277 368q155 266 155 384v6q-8 3 -22 3q-31 0 -89 -15q-83 -23 -184.5 -67 t-207 -127t-164.5 -179q-19 82 -19 159q0 73 19 105q37 59 170 135t280 122q107 33 172 33q26 0 45 -5q39 -12 73 -92q28 -65 28 -128q0 -15 -2 -30q-8 -86 -50 -198.5t-103.5 -225.5t-141.5 -227q137 94 413.5 403t395.5 543q18 0 43.5 -18.5t47 -50.5t26.5 -64 q-80 -145 -161 -304t-137.5 -278t-117 -243t-107.5 -212t-101 -172t-105.5 -139t-114 -94t-129.5 -55q-46 -11 -89 -11q-58 0 -111 19q-95 33 -159.5 109.5t-95.5 194.5q-20 76 -20 160q0 46 6 95z" />
<glyph unicode="Z" horiz-adv-x="954" d="M10 -223q8 35 23 59v2q25 49 137.5 216t245.5 345q-141 -41 -230 -100q-8 10 -2 35.5t23 36.5q63 45 256 90q242 313 411 465q-119 -33 -376.5 -131.5t-298.5 -110.5q-10 -4 -21 -4q-42 0 -84 60q-52 74 -55 175q29 -37 121 -37q30 0 68 4q150 16 306 58.5t294 82.5 q120 35 149 35q4 0 6 -1q41 -10 65 -53q18 -32 17 -55q0 -8 -2 -15q-279 -244 -459 -449q59 8 102 8q48 0 76 -10q27 -10 26 -46t-26 -50q-6 35 -70 46q-28 5 -62 5q-42 0 -93 -8q-172 -205 -358 -493q37 6 84 6q53 1 121 -7q126 -14 289 -25t309 -17q27 -1 53 -2 q115 0 209 23q116 28 151 93q15 -35 19 -82q0 -5 1 -10q0 -43 -26 -90q-29 -53 -80 -76q-37 -18 -150 -18q-43 0 -97 2q-196 10 -406 34q-212 23 -410 30q-40 1 -73 1q-137 0 -183 -22zM1032 946l31 -12q-11 10 -31 12z" />
<glyph unicode="a" horiz-adv-x="628" d="M-98 131v7q0 104 60 254q62 155 151.5 281t165.5 158q8 4 25.5 -5t39 -31.5t38.5 -50.5q16 -29 28 -70q10 -35 11 -71q0 -6 -1 -13q82 158 133 227q35 -12 54.5 -42t21.5 -64q-74 -98 -125 -185.5t-90.5 -193t-59.5 -226.5q211 127 305 300q8 -4 11.5 -18.5t1.5 -25.5 q-16 -43 -127 -176t-207 -202q-33 4 -64.5 46t-31.5 74q2 61 32 156q-141 -186 -266 -276q-39 8 -72.5 56t-33.5 91zM12 100q222 128 318 306q25 53 51 110h2v2q6 12 6 31q1 29 -13 73q-21 72 -43 72h-1q-29 -4 -77 -56t-96 -131t-90 -189.5t-57 -217.5z" />
<glyph unicode="&#xe4;" horiz-adv-x="628" d="M-98 131v7q0 104 60 254q62 155 151.5 281t165.5 158q8 4 25.5 -5t39 -31.5t38.5 -50.5q16 -29 28 -70q10 -35 11 -71q0 -6 -1 -13q82 158 133 227q35 -12 54.5 -42t21.5 -64q-74 -98 -125 -185.5t-90.5 -193t-59.5 -226.5q211 127 305 300q8 -4 11.5 -18.5t1.5 -25.5 q-16 -43 -127 -176t-207 -202q-33 4 -64.5 46t-31.5 74q2 61 32 156q-141 -186 -266 -276q-39 8 -72.5 56t-33.5 91zM12 100q222 128 318 306q25 53 51 110h2v2q6 12 6 31q1 29 -13 73q-21 72 -43 72h-1q-29 -4 -77 -56t-96 -131t-90 -189.5t-57 -217.5z" />
<glyph unicode="&#xe3;" horiz-adv-x="628" d="M-98 131v7q0 104 60 254q62 155 151.5 281t165.5 158q8 4 25.5 -5t39 -31.5t38.5 -50.5q16 -29 28 -70q10 -35 11 -71q0 -6 -1 -13q82 158 133 227q35 -12 54.5 -42t21.5 -64q-74 -98 -125 -185.5t-90.5 -193t-59.5 -226.5q211 127 305 300q8 -4 11.5 -18.5t1.5 -25.5 q-16 -43 -127 -176t-207 -202q-33 4 -64.5 46t-31.5 74q2 61 32 156q-141 -186 -266 -276q-39 8 -72.5 56t-33.5 91zM12 100q222 128 318 306q25 53 51 110h2v2q6 12 6 31q1 29 -13 73q-21 72 -43 72h-1q-29 -4 -77 -56t-96 -131t-90 -189.5t-57 -217.5z" />
<glyph unicode="&#xe2;" horiz-adv-x="628" d="M-98 131v7q0 104 60 254q62 155 151.5 281t165.5 158q8 4 25.5 -5t39 -31.5t38.5 -50.5q16 -29 28 -70q10 -35 11 -71q0 -6 -1 -13q82 158 133 227q35 -12 54.5 -42t21.5 -64q-74 -98 -125 -185.5t-90.5 -193t-59.5 -226.5q211 127 305 300q8 -4 11.5 -18.5t1.5 -25.5 q-16 -43 -127 -176t-207 -202q-33 4 -64.5 46t-31.5 74q2 61 32 156q-141 -186 -266 -276q-39 8 -72.5 56t-33.5 91zM12 100q222 128 318 306q25 53 51 110h2v2q6 12 6 31q1 29 -13 73q-21 72 -43 72h-1q-29 -4 -77 -56t-96 -131t-90 -189.5t-57 -217.5z" />
<glyph unicode="&#xe1;" horiz-adv-x="628" d="M-98 131v7q0 104 60 254q62 155 151.5 281t165.5 158q8 4 25.5 -5t39 -31.5t38.5 -50.5q16 -29 28 -70q10 -35 11 -71q0 -6 -1 -13q82 158 133 227q35 -12 54.5 -42t21.5 -64q-74 -98 -125 -185.5t-90.5 -193t-59.5 -226.5q211 127 305 300q8 -4 11.5 -18.5t1.5 -25.5 q-16 -43 -127 -176t-207 -202q-33 4 -64.5 46t-31.5 74q2 61 32 156q-141 -186 -266 -276q-39 8 -72.5 56t-33.5 91zM12 100q222 128 318 306q25 53 51 110h2v2q6 12 6 31q1 29 -13 73q-21 72 -43 72h-1q-29 -4 -77 -56t-96 -131t-90 -189.5t-57 -217.5z" />
<glyph unicode="&#xe0;" horiz-adv-x="628" d="M-98 131v7q0 104 60 254q62 155 151.5 281t165.5 158q8 4 25.5 -5t39 -31.5t38.5 -50.5q16 -29 28 -70q10 -35 11 -71q0 -6 -1 -13q82 158 133 227q35 -12 54.5 -42t21.5 -64q-74 -98 -125 -185.5t-90.5 -193t-59.5 -226.5q211 127 305 300q8 -4 11.5 -18.5t1.5 -25.5 q-16 -43 -127 -176t-207 -202q-33 4 -64.5 46t-31.5 74q2 61 32 156q-141 -186 -266 -276q-39 8 -72.5 56t-33.5 91zM12 100q222 128 318 306q25 53 51 110h2v2q6 12 6 31q1 29 -13 73q-21 72 -43 72h-1q-29 -4 -77 -56t-96 -131t-90 -189.5t-57 -217.5z" />
<glyph unicode="b" horiz-adv-x="563" d="M34 544q102 272 205 484.5t140 259.5q25 -4 46 -20.5t31.5 -39t10.5 -46.5q-164 -283 -309 -680q174 270 284 360q27 -4 53.5 -26.5t43 -54t18.5 -60.5q1 -15 1 -32q0 -97 -40 -230q-47 -156 -124.5 -286t-153.5 -165q-6 -3 -15 -3q-29 0 -83 39q-68 50 -93 112 q-20 -90 -29 -160q-32 4 -66 54q-33 47 -32 79q-1 117 112 415zM55 180q42 -48 91 -48q9 0 18 1q16 2 37.5 21.5t47 53.5t51.5 77t50.5 97t44 111.5t32.5 123t17 126.5q-113 -82 -216 -226t-156 -275q-8 -33 -17 -62z" />
<glyph unicode="c" horiz-adv-x="417" d="M-43 133q-2 21 -2 42q1 111 53 243q62 156 170.5 276.5t216.5 149.5q35 -23 57 -63q21 -37 21 -81v-8q-66 -55 -80 -123q-13 20 -13 50q0 7 1 15q4 40 22 75q-78 -25 -158.5 -121t-134.5 -236q-50 -131 -49 -254v-18q178 63 385 338q8 -2 11.5 -19.5t-0.5 -25.5 q-31 -76 -165 -215.5t-220 -163.5q-39 8 -75 52t-40 87z" />
<glyph unicode="d" horiz-adv-x="714" d="M-33 154v7q-1 107 59 255q62 153 152 279t166 159q8 4 25.5 -5t37 -29.5t38 -48.5t29.5 -67.5t11 -80.5q72 150 153 288t116 185q40 -4 66 -48q24 -41 24 -77v-6q-70 -80 -148 -212t-148.5 -301.5t-103.5 -316.5q209 125 304 297q6 -4 10 -18.5t0 -24.5 q-16 -43 -127 -176t-207 -203q-32 4 -66 49q-33 43 -32 74q0 59 30 168q-53 -76 -132 -160t-150 -135q-39 8 -73 56.5t-34 91.5zM78 123q225 131 323 311q18 45 39 90v2l2 4q5 14 5 35q0 30 -10 76q-17 76 -39 76h-1q-29 -4 -76 -56.5t-96 -131t-91 -189.5t-56 -217z" />
<glyph unicode="e" horiz-adv-x="376" d="M-76 147q-1 11 -1 23q1 119 57 259q62 153 164 270.5t204 154.5q8 2 23.5 -9t30 -36t14.5 -51q0 -111 -99 -279q-92 -160 -161 -162h-2q-37 0 -56 60q-63 -149 -64 -274q0 -6 1 -11q113 39 219 142.5t166 193.5q8 -2 11 -18.5t-1 -26.5q-31 -76 -166 -214t-219 -163 q-39 8 -79 54t-42 87zM111 408q13 -4 26 -4q41 0 85 43q58 57 93 138t43 146q-66 -43 -132 -130t-115 -193z" />
<glyph unicode="&#xea;" horiz-adv-x="376" d="M-76 147q-1 11 -1 23q1 119 57 259q62 153 164 270.5t204 154.5q8 2 23.5 -9t30 -36t14.5 -51q0 -111 -99 -279q-92 -160 -161 -162h-2q-37 0 -56 60q-63 -149 -64 -274q0 -6 1 -11q113 39 219 142.5t166 193.5q8 -2 11 -18.5t-1 -26.5q-31 -76 -166 -214t-219 -163 q-39 8 -79 54t-42 87zM111 408q13 -4 26 -4q41 0 85 43q58 57 93 138t43 146q-66 -43 -132 -130t-115 -193z" />
<glyph unicode="&#xe9;" horiz-adv-x="376" d="M-76 147q-1 11 -1 23q1 119 57 259q62 153 164 270.5t204 154.5q8 2 23.5 -9t30 -36t14.5 -51q0 -111 -99 -279q-92 -160 -161 -162h-2q-37 0 -56 60q-63 -149 -64 -274q0 -6 1 -11q113 39 219 142.5t166 193.5q8 -2 11 -18.5t-1 -26.5q-31 -76 -166 -214t-219 -163 q-39 8 -79 54t-42 87zM111 408q13 -4 26 -4q41 0 85 43q58 57 93 138t43 146q-66 -43 -132 -130t-115 -193z" />
<glyph unicode="&#xe8;" horiz-adv-x="376" d="M-76 147q-1 11 -1 23q1 119 57 259q62 153 164 270.5t204 154.5q8 2 23.5 -9t30 -36t14.5 -51q0 -111 -99 -279q-92 -160 -161 -162h-2q-37 0 -56 60q-63 -149 -64 -274q0 -6 1 -11q113 39 219 142.5t166 193.5q8 -2 11 -18.5t-1 -26.5q-31 -76 -166 -214t-219 -163 q-39 8 -79 54t-42 87zM111 408q13 -4 26 -4q41 0 85 43q58 57 93 138t43 146q-66 -43 -132 -130t-115 -193z" />
<glyph unicode="f" horiz-adv-x="356" d="M-72 108q95 273 192 489t134 263q39 -6 64 -36q24 -29 24 -63v-5q-113 -207 -229 -514q10 -1 20 -1q142 0 262 187q8 -2 12.5 -18.5t0.5 -26.5q-29 -66 -110 -139q-77 -70 -151 -70h-8q33 -83 33 -164q0 -15 -1 -30q-7 -95 -49 -181t-94.5 -147.5t-103.5 -91.5 q-31 4 -66 53q-34 46 -34 78q0 120 104 417zM-57 -315q61 41 103 109.5t58 139.5q16 64 16 126v12q-2 67 -22 112q-2 2 -6 2q-109 -291 -149 -501z" />
<glyph unicode="g" horiz-adv-x="606" d="M-158 -253q-1 9 -1 17q0 37 20 80q23 -49 61 -74q26 -17 59 -17q14 0 30 3q52 11 108 62q53 47 105 161.5t124 309.5q-139 -180 -278 -281q-39 8 -72 56.5t-35 91.5q0 106 61.5 260.5t151.5 280.5t166 159q14 6 46 -19.5t62.5 -81t30.5 -118.5q57 135 107 215 q37 0 60 -34q20 -31 20 -70v-7q-80 -117 -167 -352t-163 -439t-139 -274q-43 -45 -93 -68q-43 -19 -82 -19h-10q-43 3 -83 21.5t-61.5 55.5t-27.5 81zM76 125q231 133 325 303q25 66 43 117q3 13 3 29q0 32 -12 78q-18 67 -39 67h-1q-29 -4 -77 -56.5t-97 -131t-91 -190.5 t-54 -216z" />
<glyph unicode="h" horiz-adv-x="708" d="M58 554q102 272 204.5 484.5t138.5 259.5q39 -8 63.5 -39.5t24.5 -66.5q-106 -182 -226 -468t-181 -519q117 203 252 371.5t266 271.5q35 -12 55.5 -43t24.5 -64q-109 -152 -171.5 -291t-86.5 -315q213 125 309 299q6 -2 10 -16.5t0 -24.5q-14 -45 -125.5 -178 t-207.5 -203q-31 6 -65 48t-34 75v3q0 172 199 550q-117 -129 -254 -326.5t-211 -355.5q-31 4 -65 54q-33 48 -33 79q0 117 113 415z" />
<glyph unicode="i" horiz-adv-x="288" d="M-102 122q0 128 110 364q112 240 180 343q35 -12 55.5 -41.5t24.5 -64.5q-109 -152 -171 -291t-87 -315q213 125 309 299q6 -2 10.5 -16.5t0.5 -24.5q-16 -45 -127 -177t-207 -204q-31 6 -64.5 48t-33.5 80zM283 975q10 59 71.5 147t112.5 127q59 -27 59 -108 q-68 -57 -117 -128t-102 -179q-29 29 -29 87q0 25 5 54z" />
<glyph unicode="&#xee;" horiz-adv-x="288" d="M-102 122q0 128 110 364q112 240 180 343q35 -12 55.5 -41.5t24.5 -64.5q-109 -152 -171 -291t-87 -315q213 125 309 299q6 -2 10.5 -16.5t0.5 -24.5q-16 -45 -127 -177t-207 -204q-31 6 -64.5 48t-33.5 80zM283 975q10 59 71.5 147t112.5 127q59 -27 59 -108 q-68 -57 -117 -128t-102 -179q-29 29 -29 87q0 25 5 54z" />
<glyph unicode="&#xed;" horiz-adv-x="288" d="M-102 122q0 128 110 364q112 240 180 343q35 -12 55.5 -41.5t24.5 -64.5q-109 -152 -171 -291t-87 -315q213 125 309 299q6 -2 10.5 -16.5t0.5 -24.5q-16 -45 -127 -177t-207 -204q-31 6 -64.5 48t-33.5 80zM283 975q10 59 71.5 147t112.5 127q59 -27 59 -108 q-68 -57 -117 -128t-102 -179q-29 29 -29 87q0 25 5 54z" />
<glyph unicode="&#xec;" horiz-adv-x="288" d="M-102 122q0 128 110 364q112 240 180 343q35 -12 55.5 -41.5t24.5 -64.5q-109 -152 -171 -291t-87 -315q213 125 309 299q6 -2 10.5 -16.5t0.5 -24.5q-16 -45 -127 -177t-207 -204q-31 6 -64.5 48t-33.5 80zM283 975q10 59 71.5 147t112.5 127q59 -27 59 -108 q-68 -57 -117 -128t-102 -179q-29 29 -29 87q0 25 5 54z" />
<glyph unicode="j" horiz-adv-x="321" d="M-536 -295q-2 9 -2 19q0 37 20 79q25 -49 62 -75q25 -18 60 -18q14 0 30 4q53 10 110 63q53 47 115.5 184t114 284.5t120 316.5t125.5 261q37 0 59 -33q21 -31 21 -70v-7q-66 -96 -135.5 -266.5t-118.5 -320t-109.5 -293t-111.5 -198.5q-43 -47 -93 -69q-44 -20 -84 -20 h-11q-44 3 -83.5 21.5t-61 55.5t-27.5 82zM313 975q8 59 70.5 149t116.5 127q57 -27 57 -108q-68 -57 -117 -129t-102 -183q-30 30 -30 89q0 25 5 55z" />
<glyph unicode="k" horiz-adv-x="653" d="M64 554q102 272 204.5 484.5t139.5 259.5q39 -8 63.5 -39.5t24.5 -66.5q-59 -102 -128 -245.5t-136.5 -313.5t-112.5 -320q72 164 172 324t174 219q45 -2 82 -44t43 -95v-10q0 -43 -30 -119q-34 -86 -89 -161t-100 -83q-23 -4 -43.5 0t-31.5 13.5t-19.5 18.5t-10.5 15 l-4 8q-2 -18 -2 -36q0 -130 102 -246q231 129 334 313q6 -2 10.5 -16.5t0.5 -24.5q-16 -45 -127 -177t-207 -204q-66 33 -103 113q-37 81 -43 151q-3 35 -3 69t3 67q-37 -78 -102 -227.5t-76 -174.5q-31 4 -65 54q-33 47 -33 79q0 117 113 415zM248 446q13 -6 26 -6 q34 0 73 42q54 59 89 148t39 161q-108 -105 -227 -345z" />
<glyph unicode="l" horiz-adv-x="329" d="M68 546q102 272 204.5 484.5t139.5 261.5q39 -8 63.5 -39.5t24.5 -66.5q-115 -199 -243 -511.5t-181 -547.5q209 125 301 295q8 -4 11 -18.5t-1 -24.5q-14 -43 -124.5 -176t-209.5 -205q-31 6 -65 56q-33 47 -33 79q0 115 113 413z" />
<glyph unicode="m" horiz-adv-x="991" d="M-61 145q2 125 111.5 360.5t176.5 332.5q35 -8 61.5 -41t28.5 -68q-158 -274 -221 -500q98 186 242.5 370.5t232.5 244.5q66 -23 72 -115q-84 -143 -124 -232t-66 -198q51 76 116.5 157t126 141t103.5 91q37 -8 62.5 -48t27.5 -75q-129 -244 -168 -440q209 125 303 297 q8 -4 11 -18.5t1 -24.5q-10 -25 -60 -93.5t-129 -152.5t-145 -133h-2q-31 6 -67.5 49t-36.5 76q4 166 127 426q-223 -233 -305 -445q-33 4 -67 48q-32 41 -32 71q0 144 144 430q-113 -131 -228.5 -306t-185.5 -347q-33 4 -71.5 57.5t-38.5 85.5z" />
<glyph unicode="n" horiz-adv-x="731" d="M-43 147q2 123 111.5 358.5t177.5 334.5q35 -8 61.5 -42t28.5 -67q-166 -291 -230 -528q70 121 156 229.5t168 183t162 123.5q66 -23 72 -114q-92 -162 -134.5 -260.5t-68.5 -235.5q207 125 301 295q6 -2 10 -17.5t0 -23.5q-16 -45 -126.5 -178t-207.5 -203 q-31 4 -64.5 47t-33.5 76q4 166 172 479q-119 -96 -239.5 -252.5t-204.5 -349.5q-33 4 -72 58.5t-39 86.5z" />
<glyph unicode="o" horiz-adv-x="542" d="M-57 143q-1 11 -1 23q0 118 56 256q61 152 163.5 270.5t205.5 155.5q16 6 47 -15.5t45 -62.5q7 -18 7 -57q0 -31 -5 -79q-10 -104 -37 -134q-4 -8 -12.5 -9.5t-14.5 -1.5l-4 3q19 60 21 132q0 5 1 11q0 64 -18 104q-127 -85 -237 -291q-105 -196 -106 -360q0 -9 1 -18 q111 29 224 184q-2 13 -2 26q0 31 10 62q14 45 40.5 77t59.5 42q8 -2 13.5 -26.5t0.5 -35.5q-6 -37 -43 -108q-10 -33 25 -31q59 4 129 72q39 37 55 78q23 -5 23 -25q0 -29 -58 -89q-60 -62 -134 -100q-39 -19 -64 -19q-23 0 -35 16q-111 -156 -236 -193q-39 8 -78.5 54 t-41.5 89z" />
<glyph unicode="&#xf6;" horiz-adv-x="542" d="M-57 143q-1 11 -1 23q0 118 56 256q61 152 163.5 270.5t205.5 155.5q16 6 47 -15.5t45 -62.5q7 -18 7 -57q0 -31 -5 -79q-10 -104 -37 -134q-4 -8 -12.5 -9.5t-14.5 -1.5l-4 3q19 60 21 132q0 5 1 11q0 64 -18 104q-127 -85 -237 -291q-105 -196 -106 -360q0 -9 1 -18 q111 29 224 184q-2 13 -2 26q0 31 10 62q14 45 40.5 77t59.5 42q8 -2 13.5 -26.5t0.5 -35.5q-6 -37 -43 -108q-10 -33 25 -31q59 4 129 72q39 37 55 78q23 -5 23 -25q0 -29 -58 -89q-60 -62 -134 -100q-39 -19 -64 -19q-23 0 -35 16q-111 -156 -236 -193q-39 8 -78.5 54 t-41.5 89z" />
<glyph unicode="&#xf5;" horiz-adv-x="542" d="M-57 143q-1 11 -1 23q0 118 56 256q61 152 163.5 270.5t205.5 155.5q16 6 47 -15.5t45 -62.5q7 -18 7 -57q0 -31 -5 -79q-10 -104 -37 -134q-4 -8 -12.5 -9.5t-14.5 -1.5l-4 3q19 60 21 132q0 5 1 11q0 64 -18 104q-127 -85 -237 -291q-105 -196 -106 -360q0 -9 1 -18 q111 29 224 184q-2 13 -2 26q0 31 10 62q14 45 40.5 77t59.5 42q8 -2 13.5 -26.5t0.5 -35.5q-6 -37 -43 -108q-10 -33 25 -31q59 4 129 72q39 37 55 78q23 -5 23 -25q0 -29 -58 -89q-60 -62 -134 -100q-39 -19 -64 -19q-23 0 -35 16q-111 -156 -236 -193q-39 8 -78.5 54 t-41.5 89z" />
<glyph unicode="&#xf4;" horiz-adv-x="542" d="M-57 143q-1 11 -1 23q0 118 56 256q61 152 163.5 270.5t205.5 155.5q16 6 47 -15.5t45 -62.5q7 -18 7 -57q0 -31 -5 -79q-10 -104 -37 -134q-4 -8 -12.5 -9.5t-14.5 -1.5l-4 3q19 60 21 132q0 5 1 11q0 64 -18 104q-127 -85 -237 -291q-105 -196 -106 -360q0 -9 1 -18 q111 29 224 184q-2 13 -2 26q0 31 10 62q14 45 40.5 77t59.5 42q8 -2 13.5 -26.5t0.5 -35.5q-6 -37 -43 -108q-10 -33 25 -31q59 4 129 72q39 37 55 78q23 -5 23 -25q0 -29 -58 -89q-60 -62 -134 -100q-39 -19 -64 -19q-23 0 -35 16q-111 -156 -236 -193q-39 8 -78.5 54 t-41.5 89z" />
<glyph unicode="&#xf3;" horiz-adv-x="542" d="M-57 143q-1 11 -1 23q0 118 56 256q61 152 163.5 270.5t205.5 155.5q16 6 47 -15.5t45 -62.5q7 -18 7 -57q0 -31 -5 -79q-10 -104 -37 -134q-4 -8 -12.5 -9.5t-14.5 -1.5l-4 3q19 60 21 132q0 5 1 11q0 64 -18 104q-127 -85 -237 -291q-105 -196 -106 -360q0 -9 1 -18 q111 29 224 184q-2 13 -2 26q0 31 10 62q14 45 40.5 77t59.5 42q8 -2 13.5 -26.5t0.5 -35.5q-6 -37 -43 -108q-10 -33 25 -31q59 4 129 72q39 37 55 78q23 -5 23 -25q0 -29 -58 -89q-60 -62 -134 -100q-39 -19 -64 -19q-23 0 -35 16q-111 -156 -236 -193q-39 8 -78.5 54 t-41.5 89z" />
<glyph unicode="&#xf2;" horiz-adv-x="542" d="M-57 143q-1 11 -1 23q0 118 56 256q61 152 163.5 270.5t205.5 155.5q16 6 47 -15.5t45 -62.5q7 -18 7 -57q0 -31 -5 -79q-10 -104 -37 -134q-4 -8 -12.5 -9.5t-14.5 -1.5l-4 3q19 60 21 132q0 5 1 11q0 64 -18 104q-127 -85 -237 -291q-105 -196 -106 -360q0 -9 1 -18 q111 29 224 184q-2 13 -2 26q0 31 10 62q14 45 40.5 77t59.5 42q8 -2 13.5 -26.5t0.5 -35.5q-6 -37 -43 -108q-10 -33 25 -31q59 4 129 72q39 37 55 78q23 -5 23 -25q0 -29 -58 -89q-60 -62 -134 -100q-39 -19 -64 -19q-23 0 -35 16q-111 -156 -236 -193q-39 8 -78.5 54 t-41.5 89z" />
<glyph unicode="p" horiz-adv-x="628" d="M-186 -301q8 137 103 411.5t192.5 489.5t134.5 264q39 -6 64 -38q24 -29 24 -61v-5q-123 -225 -246 -557q102 205 226 396.5t204 248.5q39 -4 75 -50t40 -91q1 -15 1 -32q0 -97 -40 -230q-47 -156 -126 -286t-153 -165q-7 -3 -15 -3q-31 0 -86 40q-69 51 -91 114 q-113 -221 -180 -419q-18 -92 -27 -162q-20 2 -45 26.5t-41 56t-14 52.5zM129 164q41 -47 89 -47q9 0 18 2q23 4 55.5 39t69 95t69.5 134t56.5 164t29.5 174q-84 -74 -187.5 -224.5t-199.5 -336.5z" />
<glyph unicode="q" horiz-adv-x="657" d="M-29 154v7q0 104 59 253q62 155 152 281t166 159q8 4 25.5 -5t38 -30.5t39 -50.5t29.5 -69q10 -32 10 -65q0 -9 -1 -18q82 166 125 230q39 -8 64 -40q22 -30 22 -62v-5q-131 -207 -240.5 -522t-146.5 -598q-37 6 -91 73q-46 56 -46 99q0 8 2 16q29 166 148 453 q-133 -172 -248 -254q-39 8 -73 56.5t-34 91.5zM82 123q219 127 317 307q27 55 52 109v2l2 2q6 12 6 31q0 29 -13 72q-21 69 -43 69h-2q-29 -2 -75.5 -54.5t-96 -131t-91.5 -190.5t-56 -216z" />
<glyph unicode="r" horiz-adv-x="548" d="M6 389q84 147 131 254q-29 28 -29 87q0 24 5 54q10 59 71.5 147.5t112.5 127.5q57 -26 57 -104v-5q-43 -37 -90 -126t-59 -154q0 -4 5 -9.5t17.5 -10.5t28.5 -8t41 0t51 15q30 -7 52 -37q21 -28 20 -56v-5q-115 -203 -150 -440q213 127 310 301q6 -4 10 -18.5t0 -24.5 q-16 -43 -127 -176t-207 -205q-31 6 -64.5 48t-33.5 75v6q0 147 155 463q-21 -4 -40 -4q-50 0 -93 26q-78 -150 -170 -278q-20 18 -4 57z" />
<glyph unicode="s" horiz-adv-x="440" d="M-43 256q23 -52 76 -78q23 -12 43 -11q25 0 45 19q18 20 22 64q2 20 2 48q0 35 -3 82q-4 61 -4 101q0 16 1 29q-55 -92 -106 -166q-20 18 -4 57q78 137 123 238q27 133 114 209q28 -4 62 -56q25 -39 25 -72q0 -12 -3 -22q-62 -42 -88 -110q-25 -63 -25 -118q0 -4 1 -8 q2 -58 12 -147q8 -73 9 -114q0 -8 -1 -15q152 109 227 246q6 -4 10.5 -18.5t0.5 -24.5q-8 -20 -51.5 -79.5t-111 -136.5t-128.5 -130q-10 -10 -23 -16q-24 -17 -51 -17q-13 0 -25 4q-40 12 -75 40t-57 84q-18 47 -18 98q0 10 1 20z" />
<glyph unicode="t" horiz-adv-x="348" d="M254 862q-39 -4 -66.5 -6t-57.5 -1t-46 6t-32.5 15.5t-16.5 28t2 41.5q25 -37 137 -37q47 0 109 6q71 121 106 168q41 -6 67 -49q23 -37 24 -72q0 -5 -1 -10q-8 -10 -16 -18q28 2 51 2q57 0 89 -10q36 -12 37 -46q0 -9 -3 -20q-36 26 -125 26q-39 0 -88 -5 q-104 -145 -203.5 -356.5t-140.5 -401.5q209 125 303 297q8 -4 11 -18.5t-1 -24.5q-14 -43 -124.5 -176t-209.5 -205q-31 6 -65 51q-33 43 -33 74q0 227 293 741z" />
<glyph unicode="u" horiz-adv-x="669" d="M-49 109q-1 129 109 365q112 241 182 343q35 -12 55 -42t25 -64q-109 -150 -171.5 -289t-87.5 -313q195 133 402 524q67 129 104 184q35 -12 56.5 -42t23.5 -64q-109 -152 -170 -291t-88 -316q215 127 309 302q8 -4 11.5 -18.5t-0.5 -25.5q-14 -43 -125 -176t-209 -204 q-31 6 -64.5 48t-33.5 74q0 66 32 168q-150 -209 -262 -288q-31 4 -64.5 46t-33.5 79z" />
<glyph unicode="&#xfb;" horiz-adv-x="669" d="M-49 109q-1 129 109 365q112 241 182 343q35 -12 55 -42t25 -64q-109 -150 -171.5 -289t-87.5 -313q195 133 402 524q67 129 104 184q35 -12 56.5 -42t23.5 -64q-109 -152 -170 -291t-88 -316q215 127 309 302q8 -4 11.5 -18.5t-0.5 -25.5q-14 -43 -125 -176t-209 -204 q-31 6 -64.5 48t-33.5 74q0 66 32 168q-150 -209 -262 -288q-31 4 -64.5 46t-33.5 79z" />
<glyph unicode="&#xfa;" horiz-adv-x="669" d="M-49 109q-1 129 109 365q112 241 182 343q35 -12 55 -42t25 -64q-109 -150 -171.5 -289t-87.5 -313q195 133 402 524q67 129 104 184q35 -12 56.5 -42t23.5 -64q-109 -152 -170 -291t-88 -316q215 127 309 302q8 -4 11.5 -18.5t-0.5 -25.5q-14 -43 -125 -176t-209 -204 q-31 6 -64.5 48t-33.5 74q0 66 32 168q-150 -209 -262 -288q-31 4 -64.5 46t-33.5 79z" />
<glyph unicode="&#xf9;" horiz-adv-x="669" d="M-49 109q-1 129 109 365q112 241 182 343q35 -12 55 -42t25 -64q-109 -150 -171.5 -289t-87.5 -313q195 133 402 524q67 129 104 184q35 -12 56.5 -42t23.5 -64q-109 -152 -170 -291t-88 -316q215 127 309 302q8 -4 11.5 -18.5t-0.5 -25.5q-14 -43 -125 -176t-209 -204 q-31 6 -64.5 48t-33.5 74q0 66 32 168q-150 -209 -262 -288q-31 4 -64.5 46t-33.5 79z" />
<glyph unicode="v" horiz-adv-x="522" d="M-8 109q-7 40 -7 85q0 129 57 300q77 231 151 327q37 -12 61.5 -41.5t32.5 -64.5q-88 -145 -132 -280.5t-51 -301.5q109 242 266.5 487.5t241.5 313.5q16 0 36 -44t9 -59q-53 -16 -167.5 -171.5t-225 -350t-158.5 -323.5q-33 6 -70.5 48t-43.5 75z" />
<glyph unicode="w" horiz-adv-x="851" d="M-39 109q-5 31 -5 66q0 135 72 317q90 229 169 329q37 -12 59.5 -41.5t28.5 -64.5q-96 -152 -148.5 -291t-64.5 -315q209 129 293 305q41 121 95 240.5t83 166.5q23 -8 42 -25.5t29.5 -38t14.5 -42.5q-84 -145 -131 -288.5t-72 -330.5q156 172 268 448q101 249 100 391 q0 15 -1 30q8 0 21 -9.5t27.5 -22.5t26 -32.5t13.5 -36.5q-2 -53 -38 -162.5t-94.5 -239.5t-148.5 -263t-186 -213q-33 6 -70 48t-39 75q-1 12 -1 25q0 60 22 147q-129 -197 -258 -295q-31 6 -67 48t-40 75z" />
<glyph unicode="x" horiz-adv-x="645" d="M-168 47q7 -1 15 -1q62 0 141 72q88 81 200 232q-2 35 -2 71q0 91 11 195q-76 -139 -160 -256q-18 18 -2 58q120 215 190 403q43 -2 75 -25.5t38 -64.5q-41 -139 -51 -248q190 266 256 328q47 43 80 43q41 0 59 -66q-84 -16 -179 -118.5t-220 -280.5q0 -147 49 -307 q250 133 356 326q8 -2 11 -16.5t-1 -24.5q-14 -45 -124.5 -178.5t-208.5 -202.5q-33 6 -75 47t-57 76q-27 61 -36 157q-45 -61 -77 -102t-70 -85t-66.5 -64.5t-57 -30t-52.5 7t-42 55.5z" />
<glyph unicode="y" horiz-adv-x="595" d="M-168 -280q-1 9 -1 18q0 37 19 80q23 -49 61 -74q27 -18 60 -18q15 0 30 4q52 10 108 61q39 35 85 123t76.5 166t83.5 223q-158 -225 -282 -317q-20 4 -44 25.5t-39.5 49t-15.5 48.5q-1 11 -1 22q0 144 94 353q102 224 198 337q35 -12 55.5 -41.5t22.5 -64.5 q-109 -152 -170 -291t-88 -313q119 80 225.5 226t161.5 271q8 18 8 21v2q53 121 99 194q37 0 59 -33q20 -29 20 -70v-7q-80 -117 -167 -352.5t-162.5 -439.5t-139.5 -273q-43 -45 -92 -66q-45 -20 -85 -20h-7q-43 2 -83 21.5t-61.5 55t-27.5 79.5z" />
<glyph unicode="&#xfd;" horiz-adv-x="595" d="M-168 -280q-1 9 -1 18q0 37 19 80q23 -49 61 -74q27 -18 60 -18q15 0 30 4q52 10 108 61q39 35 85 123t76.5 166t83.5 223q-158 -225 -282 -317q-20 4 -44 25.5t-39.5 49t-15.5 48.5q-1 11 -1 22q0 144 94 353q102 224 198 337q35 -12 55.5 -41.5t22.5 -64.5 q-109 -152 -170 -291t-88 -313q119 80 225.5 226t161.5 271q8 18 8 21v2q53 121 99 194q37 0 59 -33q20 -29 20 -70v-7q-80 -117 -167 -352.5t-162.5 -439.5t-139.5 -273q-43 -45 -92 -66q-45 -20 -85 -20h-7q-43 2 -83 21.5t-61.5 55t-27.5 79.5z" />
<glyph unicode="z" horiz-adv-x="770" d="M-86 -168q20 47 50 87t72 73t78 55.5t95 46t94 36.5t103 34q4 2 7 3t7 2t8 3q70 110 70 197q0 13 -2 26q-18 3 -37.5 3t-39.5 -3q-40 -6 -79 -21.5t-70.5 -30.5t-50.5 -28l-20 -12q-12 10 -11.5 45t13.5 51q117 45 206 151.5t103 201.5q-96 -16 -245.5 -142.5 t-221.5 -249.5q-18 18 -4 58q90 158 217 266.5t252 132.5q5 1 10 1q32 0 60 -35q29 -36 28 -74v-9q-4 -43 -74.5 -141t-107.5 -115q29 6 51 6q15 0 27 -3q28 -7 64 -50q34 -41 35 -87q0 -3 -1 -5q0 -35 -14 -74q168 72 219 177q6 -2 10 -16.5t0 -24.5q-47 -113 -256 -199 q-82 -162 -256 -316.5t-285 -156.5q-39 0 -70.5 42t-33.5 83q-4 4 0 12zM8 -141q223 72 365 239q-141 -53 -231.5 -106t-133.5 -133z" />
<glyph unicode="&#x2000;" horiz-adv-x="784" />
<glyph unicode="&#x2001;" horiz-adv-x="1569" />
<glyph unicode="&#x2002;" horiz-adv-x="784" />
<glyph unicode="&#x2003;" horiz-adv-x="1569" />
<glyph unicode="&#x2004;" horiz-adv-x="523" />
<glyph unicode="&#x2005;" horiz-adv-x="392" />
<glyph unicode="&#x2006;" horiz-adv-x="261" />
<glyph unicode="&#x2007;" horiz-adv-x="261" />
<glyph unicode="&#x2008;" horiz-adv-x="196" />
<glyph unicode="&#x2009;" horiz-adv-x="313" />
<glyph unicode="&#x200a;" horiz-adv-x="87" />
<glyph unicode="&#x202f;" horiz-adv-x="313" />
<glyph unicode="&#x205f;" horiz-adv-x="392" />
<glyph unicode="&#x25fc;" horiz-adv-x="849" d="M0 0v850h850v-850h-850z" />
</font>
</defs>
</svg>
